IKResults
version=1
nRows=10
nColumns=40
inDegrees=yes

Units are S.I. units (second, meters, Newtons, ...)
Angles are in degrees.

endheader
time	pelvis_tilt	pelvis_list	pelvis_rotation	pelvis_tx	pelvis_ty	pelvis_tz	hip_flexion_r	hip_adduction_r	hip_rotation_r	knee_angle_r	knee_angle_r_beta	ankle_angle_r	subtalar_angle_r	mtp_angle_r	hip_flexion_l	hip_adduction_l	hip_rotation_l	knee_angle_l	knee_angle_l_beta	ankle_angle_l	subtalar_angle_l	mtp_angle_l	lumbar_extension	lumbar_bending	lumbar_rotation	arm_flex_r	arm_add_r	arm_rot_r	elbow_flex_r	pro_sup_r	wrist_flex_r	wrist_dev_r	arm_flex_l	arm_add_l	arm_rot_l	elbow_flex_l	pro_sup_l	wrist_flex_l	wrist_dev_l
      1.47000000	     12.71892775	     -4.33139584	      5.03966331	      0.59797080	      0.91944878	     -1.04238578	     13.84435764	      0.12821530	    -34.02432967	    -17.87057382	     -0.31190035	    -20.45037247	      8.65123159	     -9.88566266	    -28.63976443	      5.14851325	      7.34216727	    -19.11470577	     -0.33361455	     12.19879426	      3.11460087	     -7.11904911	    -18.93506638	      6.81383619	     -7.44752416	     -7.06719265	    -10.43030882	     -5.82326899	     15.47171022	     89.95437384	      0.00000000	      0.00000000	     16.21945852	     10.70776313	      4.08619295	     46.98219774	     89.95437384	      0.00000000	      0.00000000
      1.48000000	     12.62733465	     -4.45981893	      5.51162941	      0.61090230	      0.91841514	     -1.04216474	     13.37257695	      0.57600607	    -32.37070118	    -18.35772732	     -0.32040278	    -17.01602153	      8.28468339	     -9.84384718	    -28.73859070	      5.57457408	      6.63010847	    -20.14360812	     -0.35157228	     11.63908844	      3.85585327	     -6.86149182	    -18.64409370	      7.13006441	     -7.80570192	     -7.04493313	    -10.43221788	     -5.64714974	     15.33645862	     89.95437384	      0.00000000	      0.00000000	     15.68119167	     10.69888862	      3.73887565	     47.50481376	     89.95437384	      0.00000000	      0.00000000
      1.49000000	     12.55131520	     -4.61546521	      5.85476755	      0.62373295	      0.91756311	     -1.04177530	     13.06367487	      1.01508310	    -30.79148316	    -19.39736166	     -0.33854783	    -13.92203122	      7.49048096	     -9.55644096	    -28.83412762	      5.94342006	      5.86659817	    -21.19264207	     -0.36988138	     10.92377902	      4.62347647	     -6.58096756	    -18.41195760	      7.44682073	     -7.99556097	     -7.05775454	    -10.44397896	     -5.55747753	     15.32499490	     89.95437384	      0.00000000	      0.00000000	     15.20308186	     10.52997374	      3.64522983	     47.83781375	     89.95437384	      0.00000000	      0.00000000
      1.50000000	     12.38698967	     -4.63599615	      5.96051623	      0.63633293	      0.91704647	     -1.04131365	     12.91001704	      1.55872985	    -28.05675536	    -20.44649996	     -0.35685874	    -10.93674628	      5.24537580	     -7.23519832	    -28.96200320	      5.78500081	      4.14593076	    -22.00114812	     -0.38399247	     10.20874739	      7.24134974	     -6.19870248	    -18.17680491	      7.58194210	     -8.06623021	     -6.91909981	    -10.49149976	     -5.32750405	     15.23154929	     89.95437384	      0.00000000	      0.00000000	     14.70123037	     10.30851446	      3.71665314	     48.04475622	     89.95437384	      0.00000000	      0.00000000
      1.51000000	     12.36527232	     -4.94499659	      6.08847970	      0.64911297	      0.91693408	     -1.04070585	     12.61638437	      2.47519514	    -25.30372810	    -21.32245168	     -0.37214699	     -8.44462631	      2.75753585	     -4.66174478	    -29.00616902	      6.12252259	      3.43557978	    -23.17242999	     -0.40443520	      9.04446887	      8.44846363	     -5.92050398	    -18.05227598	      8.02579463	     -8.02944245	     -6.80430493	    -10.56016783	     -5.19857825	     15.16719425	     89.95437384	      0.00000000	      0.00000000	     14.22840442	     10.05837513	      3.71123578	     48.02856862	     89.95437384	      0.00000000	      0.00000000
      1.52000000	     12.50388962	     -5.17761567	      6.34254807	      0.66226252	      0.91725010	     -1.04044712	     12.21045766	      2.99619260	    -24.03025967	    -22.44149632	     -0.39167800	     -6.33144990	      1.71249053	     -4.46298563	    -29.03782492	      6.52000725	      3.06376945	    -24.60418867	     -0.42942410	      7.47290786	      8.96434878	     -5.61852135	    -18.03510516	      8.44411225	     -8.05667537	     -6.71633667	    -10.63820131	     -5.00699222	     15.05640620	     89.95437384	      0.00000000	      0.00000000	     13.80999015	      9.73964948	      3.67219115	     47.72808278	     89.95437384	      0.00000000	      0.00000000
      1.53000000	     12.65148651	     -5.41225377	      6.44385371	      0.67553935	      0.91791275	     -1.03978257	     11.61123853	      3.67206841	    -22.50868455	    -23.14875442	     -0.40402198	     -4.42253559	      0.36728673	     -4.12050636	    -28.99966102	      6.81607603	      2.73779511	    -26.12290485	     -0.45593070	      5.58327912	     10.12233594	     -5.22175059	    -18.02597368	      8.79090041	     -8.04658459	     -6.56370793	    -10.69887422	     -4.75263281	     14.93733870	     89.95437384	      0.00000000	      0.00000000	     13.24993171	      9.53212419	      3.62181064	     47.38507784	     89.95437384	      0.00000000	      0.00000000
      1.54000000	     12.81821278	     -5.98904386	      6.20234527	      0.68854462	      0.91909302	     -1.03796639	     10.63467570	      5.41845892	    -18.93164780	    -22.86027626	     -0.39898709	     -2.74686737	     -3.47203822	      5.64776051	    -28.91286719	      7.23452224	      2.60870651	    -27.78939037	     -0.48501636	      3.47170141	     11.64220252	     -3.87122861	    -18.12532360	      9.34995934	     -7.61522464	     -6.39145919	    -10.78200052	     -4.28040309	     14.97065868	     89.95437384	      0.00000000	      0.00000000	     12.71398773	      9.28619758	      3.71918590	     46.91917139	     89.95437384	      0.00000000	      0.00000000
      1.55000000	     13.13560553	     -6.11666062	      6.31358582	      0.70186917	      0.92046118	     -1.03701760	      9.55963729	      5.83714972	    -18.55220906	    -23.19478087	     -0.40482530	     -1.21616764	     -3.67879686	      5.41057690	    -28.68536692	      7.49572405	      2.59533929	    -29.78382901	     -0.51982588	      0.85986990	     12.72692148	     -3.50935953	    -18.28372719	      9.53381768	     -7.60749719	     -6.20582904	    -10.76530153	     -4.10154114	     14.88198853	     89.95437384	      0.00000000	      0.00000000	     12.21257076	      9.10469338	      3.69818025	     46.18835054	     89.95437384	      0.00000000	      0.00000000
      1.56000000	     13.48021166	     -6.27218677	      6.36842340	      0.71489613	      0.92216522	     -1.03588166	      8.42447161	      6.31554997	    -18.27110569	    -23.38366406	     -0.40812193	     -0.10583692	     -3.89067551	      5.22279757	    -28.36184582	      7.74878355	      2.46445526	    -31.76795749	     -0.55445545	     -1.80686857	     13.84001387	     -3.10850048	    -18.52991978	      9.72167992	     -7.51923289	     -6.04527646	    -10.75908957	     -3.88000780	     14.97986067	     89.95437384	      0.00000000	      0.00000000	     11.71754490	      8.91329081	      3.74967158	     45.39224188	     89.95437384	      0.00000000	      0.00000000
